<svg xmlns="http://www.w3.org/2000/svg" width="1000" height="1000" fill="none"><path fill="#8B5CF6" d="M667.251 89.474H332.748v53.215H218.713v68.422h-68.421v121.638H89.474v334.502h60.818v121.638h68.421v68.419h114.035v53.218h334.503v-53.218h114.035v-68.419h68.422V667.251h60.818V332.749h-60.818V211.111h-68.422v-68.422H667.251V89.474Z"/><path fill="#0050D2" d="M412.358 744.7h176.283v-19.211h60.097v-24.7h36.058v-43.911h32.051V536.122h-32.051v-43.911h-36.058v-24.699h-60.097V448.3H412.358v19.212h-60.096v24.699h-36.058v43.911h-32.051v120.756h32.051v43.911h36.058v24.7h60.096V744.7Z"/><path fill="#FFEEAD" d="M283.632 490.296v75.441h433.872v-75.441h-37.728v-58.197h-35.842v-60.353h-41.501v-49.575h-33.956v-49.576h-41.499v-43.109h-52.82v43.109h-41.501v49.576h-33.955v49.575h-41.5v60.353H321.36v58.197h-37.728Z"/><path fill="#0050D1" d="M380.742 524.368V580H619.9v-55.632h-20.796v-32.079h-19.757v-33.268h-22.876v-27.326h-18.717v-27.327h-22.876v-23.763h-29.114v23.763h-22.877v27.327h-18.716v27.326h-22.876v33.268h-19.757v32.079h-20.796Z"/></svg>